<svg width="303" height="72" viewBox="0 0 303 72" fill="none" xmlns="http://www.w3.org/2000/svg">
<g filter="url(#filter0_d_6_191)">
<mask id="path-1-outside-1_6_191" maskUnits="userSpaceOnUse" x="7" y="-0.780029" width="297" height="65" fill="black">
<rect fill="white" x="7" y="-0.780029" width="297" height="65"/>
<path d="M22.6886 62.22H8.97955L29.8682 1.71088H46.3545L67.2136 62.22H53.5045L38.3477 15.5382H37.875L22.6886 62.22ZM21.8318 38.4359H54.2136V48.4222H21.8318V38.4359ZM74.4966 62.22V1.71088H98.7239C103.175 1.71088 106.888 2.37073 109.862 3.69043C112.837 5.01012 115.072 6.84194 116.569 9.18588C118.066 11.5101 118.815 14.1889 118.815 17.2222C118.815 19.5859 118.342 21.6639 117.397 23.4563C116.451 25.2291 115.151 26.6866 113.497 27.8291C111.862 28.9518 109.991 29.7495 107.883 30.2222V30.8132C110.187 30.9116 112.344 31.5616 114.353 32.7632C116.382 33.9647 118.027 35.6488 119.287 37.8154C120.548 39.9624 121.178 42.523 121.178 45.4972C121.178 48.7078 120.381 51.5738 118.785 54.095C117.209 56.5965 114.875 58.576 111.783 60.0336C108.691 61.4912 104.879 62.22 100.349 62.22H74.4966ZM87.2898 51.7609H97.7193C101.284 51.7609 103.884 51.0813 105.519 49.7222C107.154 48.3435 107.972 46.5116 107.972 44.2268C107.972 42.5525 107.568 41.0753 106.76 39.795C105.953 38.5147 104.8 37.5101 103.303 36.7813C101.826 36.0525 100.063 35.6882 98.0148 35.6882H87.2898V51.7609ZM87.2898 27.0313H96.7739C98.5269 27.0313 100.083 26.726 101.442 26.1154C102.821 25.4851 103.904 24.5988 104.692 23.4563C105.5 22.3139 105.903 20.945 105.903 19.3495C105.903 17.1632 105.125 15.4003 103.569 14.0609C102.033 12.7215 99.8466 12.0518 97.0102 12.0518H87.2898V27.0313ZM185.107 31.9654C185.107 38.5639 183.857 44.1775 181.355 48.8063C178.873 53.4351 175.485 56.9707 171.191 59.4132C166.917 61.8359 162.111 63.0472 156.773 63.0472C151.396 63.0472 146.57 61.826 142.296 59.3836C138.022 56.9412 134.644 53.4056 132.162 48.7768C129.68 44.148 128.439 38.5442 128.439 31.9654C128.439 25.3669 129.68 19.7533 132.162 15.1245C134.644 10.4957 138.022 6.96997 142.296 4.54725C146.57 2.10482 151.396 0.883607 156.773 0.883607C162.111 0.883607 166.917 2.10482 171.191 4.54725C175.485 6.96997 178.873 10.4957 181.355 15.1245C183.857 19.7533 185.107 25.3669 185.107 31.9654ZM172.137 31.9654C172.137 27.6912 171.497 24.0866 170.216 21.1518C168.956 18.2169 167.173 15.9912 164.869 14.4745C162.564 12.9579 159.866 12.1995 156.773 12.1995C153.681 12.1995 150.982 12.9579 148.678 14.4745C146.373 15.9912 144.581 18.2169 143.301 21.1518C142.04 24.0866 141.41 27.6912 141.41 31.9654C141.41 36.2397 142.04 39.8442 143.301 42.7791C144.581 45.7139 146.373 47.9397 148.678 49.4563C150.982 50.973 153.681 51.7313 156.773 51.7313C159.866 51.7313 162.564 50.973 164.869 49.4563C167.173 47.9397 168.956 45.7139 170.216 42.7791C171.497 39.8442 172.137 36.2397 172.137 31.9654ZM231.959 1.71088H244.752V41.0063C244.752 45.4185 243.698 49.2791 241.591 52.5882C239.503 55.8972 236.578 58.4775 232.816 60.3291C229.054 62.1609 224.671 63.0768 219.668 63.0768C214.645 63.0768 210.253 62.1609 206.491 60.3291C202.729 58.4775 199.804 55.8972 197.716 52.5882C195.628 49.2791 194.584 45.4185 194.584 41.0063V1.71088H207.377V39.9132C207.377 42.2177 207.88 44.2662 208.884 46.0586C209.908 47.851 211.346 49.2594 213.198 50.2836C215.049 51.3078 217.206 51.82 219.668 51.82C222.15 51.82 224.307 51.3078 226.139 50.2836C227.99 49.2594 229.418 47.851 230.423 46.0586C231.447 44.2662 231.959 42.2177 231.959 39.9132V1.71088ZM252.973 12.2586V1.71088H302.669V12.2586H284.144V62.22H271.498V12.2586H252.973Z"/>
</mask>
<path d="M22.6886 62.22H8.97955L29.8682 1.71088H46.3545L67.2136 62.22H53.5045L38.3477 15.5382H37.875L22.6886 62.22ZM21.8318 38.4359H54.2136V48.4222H21.8318V38.4359ZM74.4966 62.22V1.71088H98.7239C103.175 1.71088 106.888 2.37073 109.862 3.69043C112.837 5.01012 115.072 6.84194 116.569 9.18588C118.066 11.5101 118.815 14.1889 118.815 17.2222C118.815 19.5859 118.342 21.6639 117.397 23.4563C116.451 25.2291 115.151 26.6866 113.497 27.8291C111.862 28.9518 109.991 29.7495 107.883 30.2222V30.8132C110.187 30.9116 112.344 31.5616 114.353 32.7632C116.382 33.9647 118.027 35.6488 119.287 37.8154C120.548 39.9624 121.178 42.523 121.178 45.4972C121.178 48.7078 120.381 51.5738 118.785 54.095C117.209 56.5965 114.875 58.576 111.783 60.0336C108.691 61.4912 104.879 62.22 100.349 62.22H74.4966ZM87.2898 51.7609H97.7193C101.284 51.7609 103.884 51.0813 105.519 49.7222C107.154 48.3435 107.972 46.5116 107.972 44.2268C107.972 42.5525 107.568 41.0753 106.76 39.795C105.953 38.5147 104.8 37.5101 103.303 36.7813C101.826 36.0525 100.063 35.6882 98.0148 35.6882H87.2898V51.7609ZM87.2898 27.0313H96.7739C98.5269 27.0313 100.083 26.726 101.442 26.1154C102.821 25.4851 103.904 24.5988 104.692 23.4563C105.5 22.3139 105.903 20.945 105.903 19.3495C105.903 17.1632 105.125 15.4003 103.569 14.0609C102.033 12.7215 99.8466 12.0518 97.0102 12.0518H87.2898V27.0313ZM185.107 31.9654C185.107 38.5639 183.857 44.1775 181.355 48.8063C178.873 53.4351 175.485 56.9707 171.191 59.4132C166.917 61.8359 162.111 63.0472 156.773 63.0472C151.396 63.0472 146.57 61.826 142.296 59.3836C138.022 56.9412 134.644 53.4056 132.162 48.7768C129.68 44.148 128.439 38.5442 128.439 31.9654C128.439 25.3669 129.68 19.7533 132.162 15.1245C134.644 10.4957 138.022 6.96997 142.296 4.54725C146.57 2.10482 151.396 0.883607 156.773 0.883607C162.111 0.883607 166.917 2.10482 171.191 4.54725C175.485 6.96997 178.873 10.4957 181.355 15.1245C183.857 19.7533 185.107 25.3669 185.107 31.9654ZM172.137 31.9654C172.137 27.6912 171.497 24.0866 170.216 21.1518C168.956 18.2169 167.173 15.9912 164.869 14.4745C162.564 12.9579 159.866 12.1995 156.773 12.1995C153.681 12.1995 150.982 12.9579 148.678 14.4745C146.373 15.9912 144.581 18.2169 143.301 21.1518C142.04 24.0866 141.41 27.6912 141.41 31.9654C141.41 36.2397 142.04 39.8442 143.301 42.7791C144.581 45.7139 146.373 47.9397 148.678 49.4563C150.982 50.973 153.681 51.7313 156.773 51.7313C159.866 51.7313 162.564 50.973 164.869 49.4563C167.173 47.9397 168.956 45.7139 170.216 42.7791C171.497 39.8442 172.137 36.2397 172.137 31.9654ZM231.959 1.71088H244.752V41.0063C244.752 45.4185 243.698 49.2791 241.591 52.5882C239.503 55.8972 236.578 58.4775 232.816 60.3291C229.054 62.1609 224.671 63.0768 219.668 63.0768C214.645 63.0768 210.253 62.1609 206.491 60.3291C202.729 58.4775 199.804 55.8972 197.716 52.5882C195.628 49.2791 194.584 45.4185 194.584 41.0063V1.71088H207.377V39.9132C207.377 42.2177 207.88 44.2662 208.884 46.0586C209.908 47.851 211.346 49.2594 213.198 50.2836C215.049 51.3078 217.206 51.82 219.668 51.82C222.15 51.82 224.307 51.3078 226.139 50.2836C227.99 49.2594 229.418 47.851 230.423 46.0586C231.447 44.2662 231.959 42.2177 231.959 39.9132V1.71088ZM252.973 12.2586V1.71088H302.669V12.2586H284.144V62.22H271.498V12.2586H252.973Z" fill="#00050B"/>
<path d="M22.6886 62.22V63.22H23.4149L23.6396 62.5293L22.6886 62.22ZM8.97955 62.22L8.03429 61.8937L7.57642 63.22H8.97955V62.22ZM29.8682 1.71088V0.71088H29.1555L28.9229 1.38456L29.8682 1.71088ZM46.3545 1.71088L47.2999 1.38498L47.0676 0.71088H46.3545V1.71088ZM67.2136 62.22V63.22H68.6161L68.159 61.8941L67.2136 62.22ZM53.5045 62.22L52.5534 62.5288L52.7778 63.22H53.5045V62.22ZM38.3477 15.5382L39.2989 15.2293L39.0744 14.5382H38.3477V15.5382ZM37.875 15.5382V14.5382H37.1487L36.9241 15.2288L37.875 15.5382ZM21.8318 38.4359V37.4359H20.8318V38.4359H21.8318ZM54.2136 38.4359H55.2136V37.4359H54.2136V38.4359ZM54.2136 48.4222V49.4222H55.2136V48.4222H54.2136ZM21.8318 48.4222H20.8318V49.4222H21.8318V48.4222ZM22.6886 61.22H8.97955V63.22H22.6886V61.22ZM9.92481 62.5463L30.8134 2.0372L28.9229 1.38456L8.03429 61.8937L9.92481 62.5463ZM29.8682 2.71088H46.3545V0.71088H29.8682V2.71088ZM45.4091 2.03679L66.2682 62.5459L68.159 61.8941L47.2999 1.38498L45.4091 2.03679ZM67.2136 61.22H53.5045V63.22H67.2136V61.22ZM54.4557 61.9112L39.2989 15.2293L37.3966 15.847L52.5534 62.5288L54.4557 61.9112ZM38.3477 14.5382H37.875V16.5382H38.3477V14.5382ZM36.9241 15.2288L21.7377 61.9106L23.6396 62.5293L38.8259 15.8475L36.9241 15.2288ZM21.8318 39.4359H54.2136V37.4359H21.8318V39.4359ZM53.2136 38.4359V48.4222H55.2136V38.4359H53.2136ZM54.2136 47.4222H21.8318V49.4222H54.2136V47.4222ZM22.8318 48.4222V38.4359H20.8318V48.4222H22.8318ZM74.4966 62.22H73.4966V63.22H74.4966V62.22ZM74.4966 1.71088V0.71088H73.4966V1.71088H74.4966ZM109.862 3.69043L109.457 4.60449V4.60449L109.862 3.69043ZM116.569 9.18588L115.727 9.72413L115.729 9.72736L116.569 9.18588ZM117.397 23.4563L118.279 23.9269L118.281 23.9229L117.397 23.4563ZM113.497 27.8291L114.063 28.6534L114.065 28.652L113.497 27.8291ZM107.883 30.2222L107.664 29.2465L106.883 29.4217V30.2222H107.883ZM107.883 30.8132H106.883V31.7713L107.84 31.8122L107.883 30.8132ZM114.353 32.7632L113.84 33.6214L113.844 33.6236L114.353 32.7632ZM119.287 37.8154L118.423 38.3183L118.425 38.3218L119.287 37.8154ZM118.785 54.095L117.94 53.5602L117.939 53.562L118.785 54.095ZM111.783 60.0336L111.357 59.1291L111.783 60.0336ZM87.2898 51.7609H86.2898V52.7609H87.2898V51.7609ZM105.519 49.7222L106.159 50.4912L106.164 50.4867L105.519 49.7222ZM106.76 39.795L105.914 40.3285L106.76 39.795ZM103.303 36.7813L102.861 37.6782L102.866 37.6804L103.303 36.7813ZM87.2898 35.6882V34.6882H86.2898V35.6882H87.2898ZM87.2898 27.0313H86.2898V28.0313H87.2898V27.0313ZM101.442 26.1154L101.852 27.0276L101.858 27.0249L101.442 26.1154ZM104.692 23.4563L103.875 22.8791L103.869 22.8886L104.692 23.4563ZM103.569 14.0609L102.912 14.8147L102.917 14.8188L103.569 14.0609ZM87.2898 12.0518V11.0518H86.2898V12.0518H87.2898ZM75.4966 62.22V1.71088H73.4966V62.22H75.4966ZM74.4966 2.71088H98.7239V0.71088H74.4966V2.71088ZM98.7239 2.71088C103.084 2.71088 106.648 3.35823 109.457 4.60449L110.268 2.77637C107.128 1.38322 103.267 0.71088 98.7239 0.71088V2.71088ZM109.457 4.60449C112.283 5.85839 114.352 7.57225 115.727 9.72413L117.412 8.64763C115.792 6.11164 113.391 4.16186 110.268 2.77637L109.457 4.60449ZM115.729 9.72736C117.112 11.8746 117.815 14.3616 117.815 17.2222H119.815C119.815 14.0163 119.021 11.1457 117.41 8.6444L115.729 9.72736ZM117.815 17.2222C117.815 19.4504 117.37 21.3634 116.512 22.9898L118.281 23.9229C119.314 21.9644 119.815 19.7214 119.815 17.2222H117.815ZM116.514 22.9857C115.644 24.6175 114.452 25.9544 112.928 27.0062L114.065 28.652C115.851 27.4189 117.258 25.8406 118.279 23.9269L116.514 22.9857ZM112.93 27.0047C111.41 28.0491 109.658 28.7992 107.664 29.2465L108.102 31.198C110.323 30.6999 112.314 29.8545 114.063 28.6534L112.93 27.0047ZM106.883 30.2222V30.8132H108.883V30.2222H106.883ZM107.84 31.8122C109.976 31.9035 111.972 32.5039 113.84 33.6214L114.867 31.9049C112.717 30.6194 110.399 29.9198 107.926 29.8141L107.84 31.8122ZM113.844 33.6236C115.717 34.7326 117.243 36.2895 118.423 38.3183L120.152 37.3125C118.811 35.008 117.048 33.1967 114.863 31.9027L113.844 33.6236ZM118.425 38.3218C119.58 40.2878 120.178 42.6662 120.178 45.4972H122.178C122.178 42.3798 121.517 39.637 120.15 37.3091L118.425 38.3218ZM120.178 45.4972C120.178 48.5335 119.427 51.2112 117.94 53.5602L119.63 54.6297C121.335 51.9363 122.178 48.8822 122.178 45.4972H120.178ZM117.939 53.562C116.48 55.8782 114.304 57.7398 111.357 59.1291L112.209 60.9382C115.447 59.4123 117.939 57.3148 119.631 54.628L117.939 53.562ZM111.357 59.1291C108.433 60.5068 104.777 61.22 100.349 61.22V63.22C104.981 63.22 108.948 62.4755 112.209 60.9382L111.357 59.1291ZM100.349 61.22H74.4966V63.22H100.349V61.22ZM87.2898 52.7609H97.7193V50.7609H87.2898V52.7609ZM97.7193 52.7609C101.373 52.7609 104.257 52.0717 106.159 50.4912L104.88 48.9533C103.511 50.091 101.196 50.7609 97.7193 50.7609V52.7609ZM106.164 50.4867C108.041 48.9036 108.972 46.7834 108.972 44.2268H106.972C106.972 46.2399 106.267 47.7833 104.875 48.9578L106.164 50.4867ZM108.972 44.2268C108.972 42.3844 108.525 40.7181 107.606 39.2615L105.914 40.3285C106.611 41.4324 106.972 42.7207 106.972 44.2268H108.972ZM107.606 39.2615C106.689 37.8082 105.388 36.6841 103.741 35.8822L102.866 37.6804C104.213 38.3361 105.216 39.2212 105.914 40.3285L107.606 39.2615ZM103.746 35.8845C102.102 35.0734 100.18 34.6882 98.0148 34.6882V36.6882C99.9464 36.6882 101.551 37.0317 102.861 37.6781L103.746 35.8845ZM98.0148 34.6882H87.2898V36.6882H98.0148V34.6882ZM86.2898 35.6882V51.7609H88.2898V35.6882H86.2898ZM87.2898 28.0313H96.7739V26.0313H87.2898V28.0313ZM96.7739 28.0313C98.6435 28.0313 100.343 27.7054 101.852 27.0276L101.032 25.2033C99.8228 25.7466 98.4103 26.0313 96.7739 26.0313V28.0313ZM101.858 27.0249C103.385 26.3267 104.616 25.3287 105.515 24.0241L103.869 22.8886C103.193 23.8689 102.257 24.6435 101.026 25.206L101.858 27.0249ZM105.509 24.0336C106.452 22.6993 106.903 21.1216 106.903 19.3495H104.903C104.903 20.7683 104.547 21.9285 103.875 22.8791L105.509 24.0336ZM106.903 19.3495C106.903 16.8934 106.014 14.8459 104.222 13.303L102.917 14.8188C104.237 15.9546 104.903 17.4329 104.903 19.3495H106.903ZM104.226 13.3071C102.448 11.7563 99.9939 11.0518 97.0102 11.0518V13.0518C99.6993 13.0518 101.618 13.6866 102.912 14.8147L104.226 13.3071ZM97.0102 11.0518H87.2898V13.0518H97.0102V11.0518ZM86.2898 12.0518V27.0313H88.2898V12.0518H86.2898ZM181.355 48.8063L180.475 48.3309L180.474 48.3338L181.355 48.8063ZM171.191 59.4132L171.685 60.2831L171.686 60.2824L171.191 59.4132ZM142.296 59.3836L142.792 58.5154L142.296 59.3836ZM132.162 48.7768L131.281 49.2493L132.162 48.7768ZM132.162 15.1245L133.043 15.5971L132.162 15.1245ZM142.296 4.54725L142.789 5.41722L142.792 5.41549L142.296 4.54725ZM171.191 4.54725L170.695 5.4155L170.7 5.41818L171.191 4.54725ZM181.355 15.1245L180.474 15.5971L180.475 15.6L181.355 15.1245ZM170.216 21.1518L169.298 21.5465L169.3 21.5516L170.216 21.1518ZM164.869 14.4745L164.319 15.3098L164.869 14.4745ZM148.678 14.4745L149.228 15.3098L148.678 14.4745ZM143.301 21.1518L142.384 20.7519L142.382 20.7571L143.301 21.1518ZM143.301 42.7791L142.382 43.1737L142.384 43.1789L143.301 42.7791ZM148.678 49.4563L149.228 48.621L148.678 49.4563ZM164.869 49.4563L164.319 48.621L164.869 49.4563ZM170.216 42.7791L169.3 42.3792L169.298 42.3844L170.216 42.7791ZM184.107 31.9654C184.107 38.4393 182.88 43.8807 180.475 48.3309L182.235 49.2818C184.833 44.4744 186.107 38.6885 186.107 31.9654H184.107ZM180.474 48.3338C178.075 52.8075 174.817 56.2006 170.697 58.5439L171.686 60.2824C176.154 57.7408 179.671 54.0627 182.236 49.2789L180.474 48.3338ZM170.698 58.5432C166.587 60.8734 161.954 62.0472 156.773 62.0472V64.0472C162.269 64.0472 167.247 62.7984 171.685 60.2831L170.698 58.5432ZM156.773 62.0472C151.554 62.0472 146.902 60.8636 142.792 58.5154L141.8 60.2519C146.239 62.7885 151.239 64.0472 156.773 64.0472V62.0472ZM142.792 58.5154C138.692 56.1724 135.443 52.7792 133.043 48.3043L131.281 49.2493C133.845 54.032 137.352 57.71 141.8 60.2519L142.792 58.5154ZM133.043 48.3043C130.657 43.853 129.439 38.4202 129.439 31.9654H127.439C127.439 38.6682 128.704 44.443 131.281 49.2493L133.043 48.3043ZM129.439 31.9654C129.439 25.4904 130.657 20.0479 133.043 15.5971L131.281 14.652C128.703 19.4587 127.439 25.2435 127.439 31.9654H129.439ZM133.043 15.5971C135.442 11.1228 138.691 7.74029 142.789 5.41721L141.803 3.67728C137.353 6.19965 133.845 9.8687 131.281 14.652L133.043 15.5971ZM142.792 5.41549C146.902 3.06725 151.554 1.88361 156.773 1.88361V-0.116392C151.239 -0.116392 146.239 1.14239 141.8 3.679L142.792 5.41549ZM156.773 1.88361C161.952 1.88361 166.585 3.06661 170.695 5.41549L171.688 3.679C167.25 1.14303 162.27 -0.116392 156.773 -0.116392V1.88361ZM170.7 5.41818C174.818 7.74159 178.075 11.1239 180.474 15.5971L182.236 14.652C179.671 9.86752 176.153 6.19835 171.683 3.67631L170.7 5.41818ZM180.475 15.6C182.88 20.0502 184.107 25.4915 184.107 31.9654H186.107C186.107 25.2423 184.833 19.4565 182.235 14.6491L180.475 15.6ZM173.137 31.9654C173.137 27.5972 172.483 23.8476 171.133 20.7519L169.3 21.5516C170.51 24.3257 171.137 27.7851 171.137 31.9654H173.137ZM171.135 20.7571C169.81 17.6715 167.911 15.2796 165.418 13.6392L164.319 15.3098C166.435 16.7027 168.102 18.7624 169.298 21.5465L171.135 20.7571ZM165.418 13.6392C162.931 12.0024 160.037 11.1995 156.773 11.1995V13.1995C159.695 13.1995 162.197 13.9133 164.319 15.3098L165.418 13.6392ZM156.773 11.1995C153.51 11.1995 150.615 12.0024 148.128 13.6392L149.228 15.3098C151.35 13.9133 153.852 13.1995 156.773 13.1995V11.1995ZM148.128 13.6392C145.637 15.2786 143.729 17.6686 142.384 20.7519L144.217 21.5516C145.433 18.7652 147.11 16.7037 149.228 15.3098L148.128 13.6392ZM142.382 20.7571C141.053 23.8512 140.41 27.5989 140.41 31.9654H142.41C142.41 27.7835 143.027 24.3221 144.219 21.5465L142.382 20.7571ZM140.41 31.9654C140.41 36.332 141.053 40.0797 142.382 43.1737L144.219 42.3844C143.027 39.6087 142.41 36.1474 142.41 31.9654H140.41ZM142.384 43.1789C143.729 46.2622 145.637 48.6522 148.128 50.2917L149.228 48.621C147.11 47.2271 145.433 45.1656 144.217 42.3792L142.384 43.1789ZM148.128 50.2917C150.615 51.9284 153.51 52.7313 156.773 52.7313V50.7313C153.852 50.7313 151.35 50.0176 149.228 48.621L148.128 50.2917ZM156.773 52.7313C160.037 52.7313 162.931 51.9284 165.418 50.2917L164.319 48.621C162.197 50.0176 159.695 50.7313 156.773 50.7313V52.7313ZM165.418 50.2917C167.911 48.6512 169.81 46.2593 171.135 43.1737L169.298 42.3844C168.102 45.1685 166.435 47.2281 164.319 48.621L165.418 50.2917ZM171.133 43.1789C172.483 40.0833 173.137 36.3336 173.137 31.9654H171.137C171.137 36.1457 170.51 39.6051 169.3 42.3792L171.133 43.1789ZM231.959 1.71088V0.71088H230.959V1.71088H231.959ZM244.752 1.71088H245.752V0.71088H244.752V1.71088ZM241.591 52.5882L240.747 52.0509L240.745 52.0545L241.591 52.5882ZM232.816 60.3291L233.254 61.2282L233.257 61.2263L232.816 60.3291ZM206.491 60.3291L206.049 61.2263L206.053 61.2281L206.491 60.3291ZM197.716 52.5882L196.87 53.1218L197.716 52.5882ZM194.584 1.71088V0.71088H193.584V1.71088H194.584ZM207.377 1.71088H208.377V0.71088H207.377V1.71088ZM208.884 46.0586L208.012 46.5475L208.016 46.5547L208.884 46.0586ZM213.198 50.2836L212.714 51.1586L212.714 51.1586L213.198 50.2836ZM226.139 50.2836L225.655 49.4086L225.651 49.4108L226.139 50.2836ZM230.423 46.0586L229.554 45.5625L229.55 45.5697L230.423 46.0586ZM231.959 2.71088H244.752V0.71088H231.959V2.71088ZM243.752 1.71088V41.0063H245.752V1.71088H243.752ZM243.752 41.0063C243.752 45.2526 242.74 48.9218 240.747 52.0509L242.434 53.1254C244.657 49.6363 245.752 45.5843 245.752 41.0063H243.752ZM240.745 52.0545C238.763 55.1962 235.983 57.6558 232.374 59.4318L233.257 61.2263C237.173 59.2993 240.243 56.5983 242.437 53.1218L240.745 52.0545ZM232.378 59.43C228.777 61.1836 224.549 62.0768 219.668 62.0768V64.0768C224.794 64.0768 229.331 63.1381 233.254 61.2281L232.378 59.43ZM219.668 62.0768C214.767 62.0768 210.53 61.1834 206.929 59.43L206.053 61.2281C209.976 63.1384 214.524 64.0768 219.668 64.0768V62.0768ZM206.932 59.4318C203.324 57.6558 200.544 55.1962 198.562 52.0545L196.87 53.1218C199.064 56.5983 202.134 59.2993 206.049 61.2263L206.932 59.4318ZM198.562 52.0545C196.587 48.9249 195.584 45.2544 195.584 41.0063H193.584C193.584 45.5825 194.669 49.6332 196.87 53.1218L198.562 52.0545ZM195.584 41.0063V1.71088H193.584V41.0063H195.584ZM194.584 2.71088H207.377V0.71088H194.584V2.71088ZM206.377 1.71088V39.9132H208.377V1.71088H206.377ZM206.377 39.9132C206.377 42.3677 206.914 44.5883 208.012 46.5475L209.756 45.5697C208.845 43.9441 208.377 42.0677 208.377 39.9132H206.377ZM208.016 46.5547C209.133 48.5104 210.706 50.048 212.714 51.1586L213.682 49.4086C211.986 48.4707 210.683 47.1917 209.752 45.5625L208.016 46.5547ZM212.714 51.1586C214.736 52.2774 217.065 52.82 219.668 52.82V50.82C217.347 50.82 215.363 50.3383 213.682 49.4086L212.714 51.1586ZM219.668 52.82C222.29 52.82 224.621 52.2781 226.627 51.1564L225.651 49.4108C223.993 50.3376 222.01 50.82 219.668 50.82V52.82ZM226.623 51.1586C228.632 50.0471 230.197 48.5073 231.295 46.5475L229.55 45.5697C228.64 47.1948 227.348 48.4716 225.655 49.4086L226.623 51.1586ZM231.291 46.5547C232.411 44.5942 232.959 42.371 232.959 39.9132H230.959C230.959 42.0644 230.483 43.9381 229.554 45.5625L231.291 46.5547ZM232.959 39.9132V1.71088H230.959V39.9132H232.959ZM252.973 12.2586H251.973V13.2586H252.973V12.2586ZM252.973 1.71088V0.71088H251.973V1.71088H252.973ZM302.669 1.71088H303.669V0.71088H302.669V1.71088ZM302.669 12.2586V13.2586H303.669V12.2586H302.669ZM284.144 12.2586V11.2586H283.144V12.2586H284.144ZM284.144 62.22V63.22H285.144V62.22H284.144ZM271.498 62.22H270.498V63.22H271.498V62.22ZM271.498 12.2586H272.498V11.2586H271.498V12.2586ZM253.973 12.2586V1.71088H251.973V12.2586H253.973ZM252.973 2.71088H302.669V0.71088H252.973V2.71088ZM301.669 1.71088V12.2586H303.669V1.71088H301.669ZM302.669 11.2586H284.144V13.2586H302.669V11.2586ZM283.144 12.2586V62.22H285.144V12.2586H283.144ZM284.144 61.22H271.498V63.22H284.144V61.22ZM272.498 62.22V12.2586H270.498V62.22H272.498ZM271.498 11.2586H252.973V13.2586H271.498V11.2586Z" fill="white" mask="url(#path-1-outside-1_6_191)"/>
</g>
<defs>
<filter id="filter0_d_6_191" x="0.979492" y="0.883606" width="301.689" height="70.1932" filterUnits="userSpaceOnUse" color-interpolation-filters="sRGB">
<feFlood flood-opacity="0" result="BackgroundImageFix"/>
<feColorMatrix in="SourceAlpha" type="matrix" values="0 0 0 0 0 0 0 0 0 0 0 0 0 0 0 0 0 0 127 0" result="hardAlpha"/>
<feOffset dx="-4" dy="4"/>
<feGaussianBlur stdDeviation="2"/>
<feComposite in2="hardAlpha" operator="out"/>
<feColorMatrix type="matrix" values="0 0 0 0 0.0627451 0 0 0 0 0.670588 0 0 0 0 0.760784 0 0 0 1 0"/>
<feBlend mode="normal" in2="BackgroundImageFix" result="effect1_dropShadow_6_191"/>
<feBlend mode="normal" in="SourceGraphic" in2="effect1_dropShadow_6_191" result="shape"/>
</filter>
</defs>
</svg>
