<svg width="303" height="71" viewBox="0 0 303 71" fill="none" xmlns="http://www.w3.org/2000/svg">
<g filter="url(#filter0_d_6_190)">
<path d="M22.6886 61.8101H8.97955L29.8682 1.30097H46.3545L67.2136 61.8101H53.5045L38.3477 15.1282H37.875L22.6886 61.8101ZM21.8318 38.026H54.2136V48.0123H21.8318V38.026ZM74.4966 61.8101V1.30097H98.7239C103.175 1.30097 106.888 1.96082 109.862 3.28051C112.837 4.60021 115.072 6.43203 116.569 8.77597C118.066 11.1002 118.815 13.779 118.815 16.8123C118.815 19.176 118.342 21.254 117.397 23.0464C116.451 24.8192 115.151 26.2767 113.497 27.4192C111.862 28.5419 109.991 29.3396 107.883 29.8123V30.4032C110.187 30.5017 112.344 31.1517 114.353 32.3532C116.382 33.5548 118.027 35.2388 119.287 37.4055C120.548 39.5525 121.178 42.1131 121.178 45.0873C121.178 48.2979 120.381 51.1638 118.785 53.6851C117.209 56.1866 114.875 58.1661 111.783 59.6237C108.691 61.0813 104.879 61.8101 100.349 61.8101H74.4966ZM87.2898 51.351H97.7193C101.284 51.351 103.884 50.6714 105.519 49.3123C107.154 47.9335 107.972 46.1017 107.972 43.8169C107.972 42.1426 107.568 40.6654 106.76 39.3851C105.953 38.1048 104.8 37.1002 103.303 36.3714C101.826 35.6426 100.063 35.2782 98.0148 35.2782H87.2898V51.351ZM87.2898 26.6214H96.7739C98.5269 26.6214 100.083 26.3161 101.442 25.7055C102.821 25.0752 103.904 24.1888 104.692 23.0464C105.5 21.904 105.903 20.5351 105.903 18.9396C105.903 16.7532 105.125 14.9904 103.569 13.651C102.033 12.3116 99.8466 11.6419 97.0102 11.6419H87.2898V26.6214ZM185.107 31.5555C185.107 38.154 183.857 43.7676 181.355 48.3964C178.873 53.0252 175.485 56.5608 171.191 59.0032C166.917 61.426 162.111 62.6373 156.773 62.6373C151.396 62.6373 146.57 61.4161 142.296 58.9737C138.022 56.5313 134.644 52.9957 132.162 48.3669C129.68 43.7381 128.439 38.1343 128.439 31.5555C128.439 24.957 129.68 19.3434 132.162 14.7146C134.644 10.0858 138.022 6.56006 142.296 4.13733C146.57 1.69491 151.396 0.473695 156.773 0.473695C162.111 0.473695 166.917 1.69491 171.191 4.13733C175.485 6.56006 178.873 10.0858 181.355 14.7146C183.857 19.3434 185.107 24.957 185.107 31.5555ZM172.137 31.5555C172.137 27.2813 171.497 23.6767 170.216 20.7419C168.956 17.807 167.173 15.5813 164.869 14.0646C162.564 12.5479 159.866 11.7896 156.773 11.7896C153.681 11.7896 150.982 12.5479 148.678 14.0646C146.373 15.5813 144.581 17.807 143.301 20.7419C142.04 23.6767 141.41 27.2813 141.41 31.5555C141.41 35.8298 142.04 39.4343 143.301 42.3691C144.581 45.304 146.373 47.5298 148.678 49.0464C150.982 50.5631 153.681 51.3214 156.773 51.3214C159.866 51.3214 162.564 50.5631 164.869 49.0464C167.173 47.5298 168.956 45.304 170.216 42.3691C171.497 39.4343 172.137 35.8298 172.137 31.5555ZM231.959 1.30097H244.752V40.5964C244.752 45.0085 243.698 48.8691 241.591 52.1782C239.503 55.4873 236.578 58.0676 232.816 59.9191C229.054 61.751 224.671 62.6669 219.668 62.6669C214.645 62.6669 210.253 61.751 206.491 59.9191C202.729 58.0676 199.804 55.4873 197.716 52.1782C195.628 48.8691 194.584 45.0085 194.584 40.5964V1.30097H207.377V39.5032C207.377 41.8078 207.88 43.8563 208.884 45.6487C209.908 47.4411 211.346 48.8495 213.198 49.8737C215.049 50.8979 217.206 51.4101 219.668 51.4101C222.15 51.4101 224.307 50.8979 226.139 49.8737C227.99 48.8495 229.418 47.4411 230.423 45.6487C231.447 43.8563 231.959 41.8078 231.959 39.5032V1.30097ZM252.973 11.8487V1.30097H302.669V11.8487H284.144V61.8101H271.498V11.8487H252.973Z" fill="white" fill-opacity="0.9" shape-rendering="crispEdges"/>
</g>
<defs>
<filter id="filter0_d_6_190" x="0.979492" y="0.473694" width="301.689" height="70.1932" filterUnits="userSpaceOnUse" color-interpolation-filters="sRGB">
<feFlood flood-opacity="0" result="BackgroundImageFix"/>
<feColorMatrix in="SourceAlpha" type="matrix" values="0 0 0 0 0 0 0 0 0 0 0 0 0 0 0 0 0 0 127 0" result="hardAlpha"/>
<feOffset dx="-4" dy="4"/>
<feGaussianBlur stdDeviation="2"/>
<feComposite in2="hardAlpha" operator="out"/>
<feColorMatrix type="matrix" values="0 0 0 0 0.0627451 0 0 0 0 0.670588 0 0 0 0 0.760784 0 0 0 1 0"/>
<feBlend mode="normal" in2="BackgroundImageFix" result="effect1_dropShadow_6_190"/>
<feBlend mode="normal" in="SourceGraphic" in2="effect1_dropShadow_6_190" result="shape"/>
</filter>
</defs>
</svg>
