<svg width="21" height="24" viewBox="0 0 21 24" fill="none" xmlns="http://www.w3.org/2000/svg">
<path d="M4.53109 17.9876C4.53109 18.5348 4.9858 18.9825 5.54155 18.9825H6.55201V22.4647C6.55201 23.2905 7.22902 23.9571 8.0677 23.9571C8.90638 23.9571 9.58339 23.2905 9.58339 22.4647V18.9825H11.6043V22.4647C11.6043 23.2905 12.2813 23.9571 13.12 23.9571C13.9587 23.9571 14.6357 23.2905 14.6357 22.4647V18.9825H15.6461C16.2019 18.9825 16.6566 18.5348 16.6566 17.9876V8.03842H4.53109V17.9876ZM2.00495 8.03842C1.16627 8.03842 0.489258 8.70502 0.489258 9.53087V16.4953C0.489258 17.321 1.16627 17.9876 2.00495 17.9876C2.84363 17.9876 3.52064 17.321 3.52064 16.4953V9.53087C3.52064 8.70502 2.84363 8.03842 2.00495 8.03842ZM19.1828 8.03842C18.3441 8.03842 17.6671 8.70502 17.6671 9.53087V16.4953C17.6671 17.321 18.3441 17.9876 19.1828 17.9876C20.0214 17.9876 20.6984 17.321 20.6984 16.4953V9.53087C20.6984 8.70502 20.0214 8.03842 19.1828 8.03842ZM14.1608 2.22818L15.4744 0.934791C15.6764 0.735831 15.6764 0.427342 15.4744 0.228382C15.2723 0.0294227 14.959 0.0294227 14.7569 0.228382L13.2615 1.70082C12.4632 1.3029 11.5538 1.07403 10.5938 1.07403C9.62381 1.07403 8.71439 1.3029 7.90602 1.70082L6.40045 0.228382C6.19836 0.0294227 5.88512 0.0294227 5.68303 0.228382C5.48094 0.427342 5.48094 0.735831 5.68303 0.934791L7.00673 2.23808C5.51125 3.32261 4.53109 5.06363 4.53109 7.04352H16.6566C16.6566 5.06363 15.6765 3.3126 14.1608 2.22818ZM8.57293 5.05373H7.56247V4.05883H8.57293V5.05373ZM13.6252 5.05373H12.6148V4.05883H13.6252V5.05373Z" fill="white"/>
</svg>
