<svg width="100" height="100" viewBox="0 0 100 100" fill="none" xmlns="http://www.w3.org/2000/svg">
<g clip-path="url(#clip0_250_1345)">
<path d="M97.5827 49.0833L74.2493 25.3333C72.5827 23.6666 70.0827 23.6666 68.416 25.3333C66.7493 27 66.7493 29.5 68.416 31.1666L88.8327 51.5833L68.416 72C67.5827 72.8333 67.166 73.6666 67.166 74.9166C67.166 77.4166 68.8327 79.0833 71.3327 79.0833C72.5827 79.0833 73.416 78.6666 74.2493 77.8333L97.9994 54.0833C99.2494 53.25 99.2493 50.75 97.5827 49.0833Z" fill="url(#paint0_linear_250_1345)"/>
<path d="M2.41732 48.0833L25.7507 24.3333C27.4173 22.6666 29.9173 22.6666 31.584 24.3333C33.2507 26 33.2507 28.5 31.584 30.1666L11.1673 50.5833L31.584 71C32.4173 71.8333 32.834 72.6666 32.834 73.9166C32.834 76.4166 31.1673 78.0833 28.6673 78.0833C27.4173 78.0833 26.584 77.6666 25.7507 76.8333L2.00065 53.0833C0.75065 52.25 0.750651 49.75 2.41732 48.0833Z" fill="url(#paint1_linear_250_1345)"/>
<rect x="53.416" y="11" width="8" height="76.7734" rx="4" transform="rotate(11.5841 53.416 11)" fill="url(#paint2_linear_250_1345)"/>
</g>
<defs>
<linearGradient id="paint0_linear_250_1345" x1="40.5" y1="-8.98416e-06" x2="101.076" y2="3.84167" gradientUnits="userSpaceOnUse">
<stop stop-color="#3CFF5B"/>
<stop offset="1" stop-color="#2FCDFF"/>
</linearGradient>
<linearGradient id="paint1_linear_250_1345" x1="46.5" y1="17" x2="-23.5967" y2="17.5009" gradientUnits="userSpaceOnUse">
<stop stop-color="#2FCDFF"/>
<stop offset="0.758442" stop-color="#3CFF5B"/>
</linearGradient>
<linearGradient id="paint2_linear_250_1345" x1="30.3728" y1="-47.0553" x2="59.4798" y2="-49.9668" gradientUnits="userSpaceOnUse">
<stop stop-color="#3CFF5B"/>
<stop offset="1" stop-color="#2FCDFF"/>
</linearGradient>
<clipPath id="clip0_250_1345">
<rect width="100" height="100" fill="white"/>
</clipPath>
</defs>
</svg>
