<svg width="100" height="100" viewBox="0 0 100 100" fill="none" xmlns="http://www.w3.org/2000/svg">
<path d="M24.9994 54.1667H8.33268C5.83268 54.1667 4.16602 55.8334 4.16602 58.3334V91.6667C4.16602 94.1667 5.83268 95.8334 8.33268 95.8334H24.9994C27.4994 95.8334 29.166 94.1667 29.166 91.6667V58.3334C29.166 55.8334 27.4994 54.1667 24.9994 54.1667ZM91.666 37.5H74.9994C72.4994 37.5 70.8327 39.1667 70.8327 41.6667V91.6667C70.8327 94.1667 72.4994 95.8334 74.9994 95.8334H91.666C94.166 95.8334 95.8327 94.1667 95.8327 91.6667V41.6667C95.8327 39.1667 94.166 37.5 91.666 37.5ZM58.3327 4.16669H41.666C39.166 4.16669 37.4994 5.83335 37.4994 8.33335V91.6667C37.4994 94.1667 39.166 95.8334 41.666 95.8334H58.3327C60.8327 95.8334 62.4994 94.1667 62.4994 91.6667V8.33335C62.4994 5.83335 60.8327 4.16669 58.3327 4.16669Z" fill="url(#paint0_linear_84_717)"/>
<defs>
<linearGradient id="paint0_linear_84_717" x1="-2.94606" y1="4.16669" x2="111.535" y2="32.5895" gradientUnits="userSpaceOnUse">
<stop stop-color="#3CFF5B"/>
<stop offset="1" stop-color="#2FCDFF"/>
</linearGradient>
</defs>
</svg>
