<svg width="100" height="100" viewBox="0 0 100 100" fill="none" xmlns="http://www.w3.org/2000/svg">
<path d="M91.6674 30.1667C91.6706 29.6183 91.5655 29.0747 91.3581 28.567C91.1508 28.0594 90.8452 27.5977 90.4591 27.2083L72.7924 9.54165C72.4031 9.15548 71.9413 8.84996 71.4337 8.64261C70.926 8.43526 70.3824 8.33015 69.8341 8.33332C69.2857 8.33015 68.7421 8.43526 68.2344 8.64261C67.7268 8.84996 67.2651 9.15548 66.8757 9.54165L55.0841 21.3333L9.54239 66.875C9.15621 67.2643 8.85069 67.7261 8.64334 68.2337C8.43599 68.7414 8.33088 69.285 8.33405 69.8333V87.5C8.33405 88.6051 8.77304 89.6649 9.55444 90.4463C10.3358 91.2277 11.3957 91.6667 12.5007 91.6667H30.1674C30.7504 91.6984 31.3336 91.6072 31.8791 91.399C32.4247 91.1909 32.9204 90.8704 33.3341 90.4583L78.6257 44.9167L90.4591 33.3333C90.8394 32.9295 91.1492 32.4647 91.3757 31.9583C91.4159 31.6262 91.4159 31.2904 91.3757 30.9583C91.3952 30.7644 91.3952 30.5689 91.3757 30.375L91.6674 30.1667ZM28.4591 83.3333H16.6674V71.5417L58.0424 30.1667L69.8341 41.9583L28.4591 83.3333ZM75.7091 36.0833L63.9174 24.2917L69.8341 18.4167L81.5841 30.1667L75.7091 36.0833Z" fill="url(#paint0_linear_84_703)"/>
<defs>
<linearGradient id="paint0_linear_84_703" x1="1.86845" y1="8.33326" x2="105.943" y2="34.1705" gradientUnits="userSpaceOnUse">
<stop stop-color="#3CFF5B"/>
<stop offset="1" stop-color="#2FCDFF"/>
</linearGradient>
</defs>
</svg>
