<svg width="100" height="100" viewBox="0 0 100 100" fill="none" xmlns="http://www.w3.org/2000/svg">
<path d="M94.1667 8.75C93.75 7.5 92.5 6.25 91.25 5.83333C73.75 1.25 55.8333 6.66666 43.75 20.8333L39.1667 26.25L27.9167 23.75C22.5 21.6667 16.6667 24.1667 14.1667 29.1667L5 45.4167C4.16667 46.6667 4.16667 47.9167 5 49.1667C5.41667 50.4167 6.66667 51.25 7.91667 51.6667L20.8333 54.5833C19.5833 57.9167 19.1667 61.25 18.3333 64.5833C18.3333 65.8333 18.75 67.0833 19.5833 67.9167L32.5 80.8333C33.3333 81.6667 34.1667 82.0833 35.4167 82.0833H35.8333C39.5833 81.6667 42.9167 81.25 46.25 80L48.75 92.5C49.1667 93.75 50 95 51.25 95.4167C51.6667 95.8333 52.5 95.8333 52.9167 95.8333C53.75 95.8333 54.1667 95.8333 55 95.4167L71.25 86.25C75.8333 83.75 78.3333 77.9167 77.0833 72.5L74.1667 60.8333L79.1667 56.25C92.9167 44.5833 98.75 25.8333 94.1667 8.75ZM30.4167 36.6667C27.9167 40 25.4167 43.3333 23.75 46.6667L15 44.5833L21.25 33.3333C22.0833 31.6667 23.75 31.25 25.8333 31.6667L32.9167 33.3333L30.4167 36.6667ZM66.6667 78.75L55.4167 85L53.75 76.6667C57.5 75 60.8333 72.5 63.75 70L66.6667 67.0833L68.3333 74.1667C69.1667 76.25 67.9167 78.3333 66.6667 78.75ZM69.5833 36.6667C66.25 36.6667 63.3333 33.75 63.3333 30.4167C63.3333 27.0833 66.25 24.1667 69.5833 24.1667C72.9167 24.1667 75.8333 27.0833 75.8333 30.4167C75.8333 33.75 73.3333 36.6667 69.5833 36.6667Z" fill="url(#paint0_linear_84_711)"/>
<defs>
<linearGradient id="paint0_linear_84_711" x1="-2.7111" y1="4.24244" x2="111.389" y2="32.4906" gradientUnits="userSpaceOnUse">
<stop stop-color="#3CFF5B"/>
<stop offset="1" stop-color="#2FCDFF"/>
</linearGradient>
</defs>
</svg>
