<svg xmlns="http://www.w3.org/2000/svg" width="554" height="304" viewBox="0 0 554 304" version="1.1"><path d="M 52.899 1.154 C 50.787 1.586, 48.308 3.433, 45.600 6.593 C 30.677 24.005, 2.013 58.628, 2.007 59.250 C 2.003 59.663, 67.025 60, 146.500 60 L 291 60 291 77 L 291 94 247.145 94 L 203.290 94 202.764 168.250 C 202.452 212.395, 202.610 243.210, 203.154 244.250 C 203.994 245.854, 206.436 246, 232.428 246 C 257.364 246, 260.859 245.809, 261.393 244.418 C 261.727 243.548, 262 222.623, 262 197.918 L 262 153 276.964 153 L 291.928 153 292.214 188.823 L 292.500 224.647 295.518 230.545 C 298.865 237.086, 305.618 242.970, 311.962 244.870 C 314.647 245.675, 342.526 246, 408.799 246 L 501.865 246 515.736 229.750 C 523.365 220.813, 534.243 207.890, 539.911 201.034 L 550.215 188.568 547.357 187.575 C 545.571 186.955, 508.609 186.459, 448.711 186.253 L 352.922 185.924 351.961 183.397 C 351.432 182.007, 351 174.627, 351 166.996 L 351 153.122 384.250 152.811 L 417.500 152.500 423.637 149.664 C 430.956 146.282, 435.085 142.266, 438.199 135.500 C 440.426 130.661, 440.516 129.370, 441 95.500 L 441.500 60.500 473.229 60 L 504.958 59.500 507.402 57 C 508.746 55.625, 519.810 42.575, 531.990 28 L 554.134 1.500 483.817 1.251 C 305.663 0.619, 55.788 0.563, 52.899 1.154 M 351.617 61.555 C 350.702 63.940, 350.898 90.292, 351.842 91.779 C 352.453 92.741, 356.110 92.989, 366.577 92.779 L 380.500 92.500 380.500 76.500 L 380.500 60.500 366.367 60.223 C 354.139 59.984, 352.151 60.163, 351.617 61.555 M 125 160.500 L 125 246 154.500 246 L 184 246 184 160.500 L 184 75 154.500 75 L 125 75 125 160.500 M 169.500 275.873 C 164.554 278.165, 162 282.411, 162 288.339 C 162 297.461, 166.375 303, 173.581 303 C 179.573 303, 182.676 301.580, 184.996 297.775 C 187.376 293.871, 187.644 286.477, 185.584 281.546 C 182.966 275.280, 176.045 272.839, 169.500 275.873 M 388.020 275.711 C 378.433 280.640, 377.135 294.241, 385.615 300.912 C 387.668 302.527, 389.695 303, 394.563 303 C 401.504 303, 404 301.543, 404 297.494 C 404 296.194, 404.432 293.993, 404.961 292.603 C 405.858 290.242, 405.684 290.031, 402.309 289.398 C 398.325 288.651, 393.895 289.804, 393.246 291.758 C 392.995 292.515, 394.058 293.262, 395.914 293.633 C 399.250 294.300, 399.882 296.023, 397.511 297.991 C 395.241 299.875, 389.292 298.375, 387.364 295.432 C 385 291.825, 385.119 285.660, 387.617 282.299 C 390.604 278.282, 394.037 278.216, 398.452 282.092 C 402.719 285.838, 403.878 285.151, 403.245 279.250 C 402.831 275.383, 402.541 275, 400.020 275 C 398.496 275, 395.956 274.757, 394.375 274.461 C 392.618 274.131, 390.147 274.617, 388.020 275.711 M 442.992 275.767 C 433.441 280.561, 432.147 294.251, 440.615 300.912 C 444.606 304.051, 453.238 303.853, 456.545 300.545 C 460.045 297.046, 459.751 295.567, 455.750 296.544 C 453.962 296.980, 450.475 297.374, 448 297.419 C 443.763 297.495, 443.393 297.281, 441.670 293.754 C 439.567 289.451, 440.045 285.483, 443.142 281.547 C 445.828 278.131, 449.155 278.320, 453.499 282.133 C 455.461 283.856, 457.334 284.999, 457.661 284.673 C 458.383 283.951, 458.656 276.300, 457.981 275.704 C 457.717 275.469, 455.012 274.998, 451.972 274.656 C 447.773 274.184, 445.614 274.451, 442.992 275.767 M 135.622 277 C 139.541 286.071, 139.842 290.548, 136.960 296.899 C 135.863 299.318, 135.136 301.470, 135.346 301.680 C 136.505 302.839, 141.830 303.607, 143.758 302.894 L 145.997 302.066 144.029 297.073 C 142.831 294.033, 142.443 291.844, 143.037 291.477 C 144.493 290.577, 149.561 294.553, 152.011 298.518 C 153.673 301.207, 154.828 302, 157.082 302 C 160.697 302, 160.686 301.481, 156.972 296.572 C 153.581 292.090, 153.425 291.293, 155.488 289.013 C 158.087 286.141, 158.390 281.703, 156.173 278.963 C 154.371 276.734, 153.269 276.452, 144.578 276 C 136.299 275.569, 135.063 275.707, 135.622 277 M 194.514 277.168 C 186.682 283.328, 187.471 297.089, 195.906 301.451 C 197.553 302.303, 201.328 303, 204.295 303 C 210.867 303, 213.009 301.097, 213.741 294.609 L 214.245 290.137 210.546 289.443 C 206.705 288.722, 202 290.132, 202 292.004 C 202 292.579, 203.371 293.324, 205.047 293.659 C 207.041 294.058, 207.992 294.791, 207.797 295.777 C 207.342 298.086, 204.600 299.367, 201.682 298.635 C 196.229 297.266, 193.012 290.730, 195.095 285.251 C 197.636 278.568, 202.219 277.235, 208 281.500 C 209.864 282.875, 211.526 284, 211.694 284 C 211.862 284, 212 281.975, 212 279.500 L 212 275 204.635 275 C 198.594 275, 196.774 275.390, 194.514 277.168 M 248.500 276.379 L 245.500 277.668 248.664 279.315 L 251.828 280.963 247.492 291.231 L 243.155 301.500 248.188 301.806 C 254.061 302.163, 255.374 301.369, 252.312 299.310 C 249.117 297.161, 250.478 295, 255.025 295 C 260.990 295, 262.092 295.704, 260.747 298.656 C 259.842 300.642, 259.905 301.327, 261.057 302.056 C 263.003 303.287, 275.221 303.247, 278.506 301.998 L 281.142 300.996 279.071 298.363 C 276.921 295.630, 276.521 291.943, 278 288.500 C 278.653 286.980, 278.876 286.888, 278.930 288.115 C 279.037 290.587, 282.900 294.976, 284.445 294.383 C 285.200 294.093, 286.396 292.457, 287.105 290.747 L 288.393 287.637 289.164 290.522 C 290.134 294.147, 289.388 297.207, 286.877 299.901 L 284.922 302 290.533 302 L 296.144 302 295.325 296.250 C 294.296 289.024, 294.274 282.307, 295.269 278.750 C 295.999 276.139, 295.867 276, 292.641 276 C 288.730 276, 287.739 276.972, 286.010 282.500 C 284.133 288.499, 283.583 288.496, 281.537 282.478 C 279.314 275.938, 278.065 274.695, 274.596 275.565 C 272 276.217, 272 276.218, 272 287.108 C 272 297.160, 271.853 298, 270.091 298 C 268.609 298, 267.334 295.855, 264.388 288.413 C 259.318 275.603, 256.056 273.133, 248.500 276.379 M 300.206 276.047 C 298.307 276.809, 298.092 277.304, 298.956 278.918 C 300.505 281.813, 300.220 293.538, 298.500 297.654 C 297.675 299.629, 297 301.414, 297 301.622 C 297 301.830, 299.710 302, 303.023 302 L 309.046 302 307.488 299.623 C 305.086 295.956, 304.071 291.345, 304.992 288.280 C 305.452 286.751, 305.868 286.175, 305.918 287 C 305.967 287.825, 306.929 290.011, 308.055 291.859 C 310.074 295.170, 310.132 295.191, 312.188 293.359 C 313.335 292.336, 314.891 290.150, 315.646 288.500 C 316.895 285.772, 316.961 286.248, 316.380 293.750 L 315.742 302 319.871 302 C 324.423 302, 324.436 301.978, 322.979 296.993 C 321.802 292.969, 321.526 282.720, 322.491 278.886 C 323.004 276.847, 322.739 276.165, 321.287 275.785 C 317.631 274.829, 315.258 276.707, 313.523 281.929 C 312.597 284.718, 311.516 287, 311.121 287 C 310.725 287, 309.813 285.313, 309.093 283.250 C 306.355 275.407, 304.847 274.185, 300.206 276.047 M 354.565 276.329 C 353.073 277.420, 352.951 278.040, 353.884 279.783 C 355.885 283.522, 356.337 293.106, 354.729 297.713 C 353.921 300.030, 353.501 302.168, 353.796 302.463 C 354.731 303.398, 362.051 303.043, 364.066 301.965 C 366.593 300.612, 366.541 299, 363.969 299 C 361.345 299, 360.818 297.461, 361.193 290.890 L 361.500 285.517 366 293.434 C 370.751 301.792, 372.695 303.715, 375.364 302.691 C 376.763 302.154, 377 300.174, 377 289.031 L 377 276 372 276 C 369.250 276, 367 276.243, 367 276.540 C 367 276.837, 367.925 278.893, 369.056 281.110 C 370.297 283.543, 370.991 286.545, 370.806 288.683 L 370.500 292.226 366.181 284.611 C 360.919 275.335, 358.390 273.532, 354.565 276.329 M 0 282.083 C 0 289.004, 1.859 289.892, 3.330 283.673 C 3.954 281.035, 4.734 280, 6.099 280 C 7.827 280, 8 280.824, 8 289.031 C 8 296.184, 7.688 298.160, 6.500 298.531 C 1.479 300.100, 1.423 300.208, 4.862 301.669 C 8.865 303.369, 18.153 303.076, 18.762 301.229 C 19 300.507, 17.848 299.494, 16.090 298.882 L 13 297.804 13 290.102 C 13 281.744, 14.066 279.430, 17.153 281.082 C 18.298 281.695, 19 283.174, 19 284.976 C 19 288.589, 20.553 289.704, 21.950 287.094 C 23.607 283.997, 23.269 277.317, 21.418 276.607 C 20.548 276.273, 15.373 276, 9.918 276 L 0 276 0 282.083 M 27.164 278.750 C 28.606 282.307, 28.606 296.693, 27.164 300.250 L 26.050 303 31.133 303 C 35.898 303, 36.183 302.859, 35.677 300.750 C 35.380 299.512, 34.831 296.813, 34.457 294.750 L 33.777 291 38.389 291 L 43 291 43 294.594 C 43 297.370, 42.536 298.309, 40.959 298.721 C 38.335 299.407, 38.953 301.249, 42.191 302.394 C 45.915 303.710, 50.372 302.372, 49.469 300.208 C 46.842 293.915, 46.869 284.611, 49.534 277.750 C 50.127 276.223, 49.563 276, 45.107 276 C 42.239 276, 40 276.456, 40 277.040 C 40 277.612, 40.909 279.862, 42.020 282.040 L 44.041 286 38.616 286 L 33.192 286 35.092 281 L 36.992 276 31.521 276 L 26.050 276 27.164 278.750 M 52 276.635 C 52 276.985, 53.125 278.313, 54.500 279.588 C 56.740 281.663, 57 282.687, 57 289.429 C 57 296.366, 56.803 297.083, 54.483 298.603 C 52.509 299.896, 52.212 300.550, 53.105 301.626 C 53.937 302.629, 57.037 303, 64.587 303 C 74.004 303, 75.028 302.816, 76.031 300.941 C 77.419 298.348, 76.318 293, 74.396 293 C 73.589 293, 72.685 294.327, 72.350 296 C 71.847 298.517, 71.277 299, 68.809 299 C 64.187 299, 62 297.345, 62 293.848 C 62 291.228, 62.299 290.859, 64 291.383 C 65.100 291.723, 66.900 292.277, 68 292.617 C 69.824 293.179, 70 292.772, 70 288 C 70 283.228, 69.824 282.821, 68 283.383 C 66.900 283.723, 65.100 284.277, 64 284.617 C 62.617 285.043, 62 284.772, 62 283.739 C 62 279.475, 70.692 278.659, 72.489 282.754 C 73.707 285.530, 75.210 285.158, 76.402 281.785 C 78.268 276.508, 77.182 276, 64.031 276 C 57.414 276, 52 276.286, 52 276.635 M 110.230 280.217 C 112.920 285.378, 113.104 293.120, 110.647 297.779 C 109.696 299.583, 109.188 301.496, 109.518 302.029 C 110.547 303.694, 119.349 303.146, 122.027 301.250 L 124.500 299.500 121 299 C 118.131 298.590, 117.445 298.030, 117.198 295.895 C 116.913 293.447, 117.209 293.254, 122.146 292.669 C 128.838 291.877, 131.273 289.581, 131.273 284.065 C 131.273 277.127, 129.399 276, 117.861 276 L 108.032 276 110.230 280.217 M 218.230 280.217 C 221.056 285.639, 221.160 293.251, 218.469 297.792 C 216.774 300.654, 216.714 301.208, 218.009 302.027 C 218.829 302.545, 221.188 302.976, 223.250 302.985 C 226.378 302.997, 227 302.657, 227 300.934 C 227 299.798, 226.515 297.963, 225.923 296.856 C 225.331 295.749, 225.102 294.176, 225.415 293.361 C 226.249 291.188, 230.742 294.107, 234.240 299.094 C 236.895 302.877, 240.157 304.172, 241.512 301.981 C 241.858 301.420, 240.589 298.833, 238.691 296.231 L 235.240 291.500 237.287 288.788 C 239.822 285.429, 239.921 280.676, 237.512 278.013 C 235.922 276.256, 234.441 276, 225.861 276 L 216.032 276 218.230 280.217 M 328.524 276.962 C 328.197 277.491, 329.745 278.850, 331.965 279.982 L 336 282.041 336 289.913 C 336 298.327, 335.587 299, 330.418 299 C 327.269 299, 327.331 300.374, 330.547 301.839 C 335.327 304.017, 348 302.792, 348 300.153 C 348 299.659, 346.200 298.968, 344 298.616 L 340 297.976 340 290.111 C 340 281.727, 340.485 280.757, 345.250 279.619 C 346.762 279.258, 348 278.295, 348 277.481 C 348 276.278, 346.230 276, 338.559 276 C 333.366 276, 328.851 276.433, 328.524 276.962 M 464.411 279.077 C 466.714 281.813, 467 283.019, 467 289.979 C 467 297.775, 466.989 297.808, 464 298.850 C 462.350 299.425, 461 300.361, 461 300.929 C 461 302.604, 464.875 303.103, 475.478 302.792 C 485.210 302.507, 485.479 302.436, 486.368 299.902 C 487.518 296.624, 486.318 289.727, 484.693 290.269 C 484.037 290.487, 483.370 291.528, 483.211 292.583 C 482.315 298.526, 481.998 299, 478.915 299 C 472.830 299, 472 297.789, 472 288.913 C 472 280.904, 472.003 280.895, 475 279.850 C 476.650 279.275, 478 278.173, 478 277.402 C 478 276.315, 476.184 276, 469.911 276 L 461.822 276 464.411 279.077 M 491.462 285.250 C 492.595 300.789, 493.948 303, 502.323 303 C 510.513 303, 512.864 298.634, 512.956 283.250 L 513 276 508.500 276 C 506.025 276, 504 276.268, 504 276.596 C 504 276.923, 504.951 278.526, 506.113 280.158 C 507.882 282.643, 508.157 284.189, 507.807 289.683 C 507.492 294.631, 506.927 296.580, 505.504 297.621 C 503.017 299.439, 501.658 299.361, 499.101 297.250 C 495.903 294.610, 495.746 283.187, 498.851 278.988 L 501.060 276 495.924 276 L 490.788 276 491.462 285.250 M 519.121 281.250 C 521.301 287.561, 521.414 293.108, 519.471 298.500 C 518.679 300.700, 518.023 302.613, 518.015 302.750 C 517.971 303.474, 533.019 302.845, 536.081 301.994 C 540.981 300.633, 542.890 297.063, 541.054 292.695 C 540.315 290.938, 539.663 287.102, 539.605 284.170 C 539.461 276.856, 538.083 276, 526.463 276 L 517.307 276 519.121 281.250 M 169.924 281.581 C 168.025 283.602, 167.500 285.245, 167.500 289.167 C 167.500 293.447, 167.919 294.534, 170.391 296.660 C 172.537 298.506, 173.953 298.984, 175.891 298.518 C 179.776 297.584, 181 295.257, 181 288.809 C 181 284.333, 180.541 282.541, 179 281 C 176.270 278.270, 172.828 278.490, 169.924 281.581 M 526.557 281.223 C 524.008 284.862, 524.598 286, 529.031 286 C 533.762 286, 535.164 283.944, 532.466 280.963 C 530.154 278.408, 528.476 278.482, 526.557 281.223 M 117 284 C 117 287.979, 117.020 288, 120.878 288 C 125.229 288, 127.477 286.080, 126.549 283.156 C 125.921 281.177, 123.276 280.038, 119.250 280.014 C 117.289 280.002, 117 280.514, 117 284 M 143 283.857 C 143 288.247, 142.814 288.190, 149.250 285.785 C 151.857 284.811, 152.890 282.668, 151.242 281.650 C 150.826 281.392, 148.801 280.866, 146.742 280.479 L 143 279.777 143 283.857 M 225.015 282.250 C 225.041 286.072, 226.421 287.286, 229.875 286.527 C 232.272 286.001, 233 285.304, 233 283.537 C 233 281.993, 232.258 281.034, 230.750 280.630 C 226.467 279.483, 224.999 279.897, 225.015 282.250 M 254.998 284.611 C 254.417 286.200, 253.743 288.063, 253.502 288.750 C 253.206 289.592, 254.179 290, 256.480 290 L 259.898 290 258.344 286.250 C 256.289 281.291, 256.225 281.260, 254.998 284.611 M 525 294.331 C 525 297.242, 525.400 297.843, 527.614 298.267 C 529.051 298.541, 531.414 298.449, 532.864 298.061 C 534.951 297.503, 535.500 296.747, 535.500 294.428 C 535.500 291.601, 535.319 291.490, 530.250 291.198 L 525 290.895 525 294.331" stroke="none" fill="#fffcfc" fill-rule="evenodd"/><path d="" stroke="none" fill="#fcfcfc" fill-rule="evenodd"/></svg>